<?xml version="1.0" encoding="iso-8859-1"?>
<!-- Generator: Adobe Illustrator 16.0.0, SVG Export Plug-In . SVG Version: 6.00 Build 0)  -->
<!DOCTYPE svg PUBLIC "-//W3C//DTD SVG 1.1//EN" "http://www.w3.org/Graphics/SVG/1.1/DTD/svg11.dtd">
<svg version="1.1" id="Capa_1" xmlns="http://www.w3.org/2000/svg" xmlns:xlink="http://www.w3.org/1999/xlink" x="0px" y="0px"
	 width="307.624px" height="307.624px" viewBox="0 0 307.624 307.624" style="enable-background:new 0 0 307.624 307.624;"
	 xml:space="preserve">
<g>
	<g>
		<path d="M300.29,160.864H7.333l-7.099,53.258C-1.703,228.636,8.602,240.4,23.24,240.4h261.143
			c14.645,0,24.943-11.765,23.007-26.278L300.29,160.864z M84.549,227.808c-29.282,0-53.024-12.625-53.024-28.189
			c0-15.561,23.742-28.186,53.024-28.186s53.024,12.625,53.024,28.186C137.573,215.183,113.832,227.808,84.549,227.808z
			 M223.074,227.808c-29.282,0-53.023-12.625-53.023-28.189c0-15.561,23.741-28.186,53.023-28.186s53.024,12.625,53.024,28.186
			C276.099,215.183,252.356,227.808,223.074,227.808z"/>
		<path d="M83.866,194.947c8.419,0,15.245,2.371,15.245,5.302c0,2.932-6.825,5.303-15.245,5.303s-15.245-2.371-15.245-5.303
			C68.621,197.318,75.446,194.947,83.866,194.947z"/>
		<ellipse cx="223.488" cy="200.632" rx="15.244" ry="5.302"/>
		<path d="M61.625,112.565c0-1.209-0.606-1.814-1.817-1.814h-5.453h-0.108c-1.217,0-1.818,0.605-1.818,1.814v5.455
			c0,1.215,0.601,1.818,1.818,1.818h5.452h0.104c1.212,0,1.818-0.603,1.818-1.818v-5.455H61.625z"/>
		<path d="M54.252,108.928h5.453c1.207,0,1.817-0.601,1.817-1.814v-5.455c0-1.209-0.606-1.812-1.817-1.812h-5.453
			c-1.217,0-1.817,0.598-1.817,1.812v5.455C52.435,108.327,53.035,108.928,54.252,108.928z"/>
		<path d="M61.625,123.364c0-1.206-0.606-1.812-1.817-1.812h-5.453h-0.108c-1.217,0-1.818,0.606-1.818,1.812v5.458
			c0,1.214,0.601,1.823,1.818,1.823h5.452h0.104c1.212,0,1.818-0.608,1.818-1.823v-5.458H61.625z"/>
		<path d="M50.726,134.277c0-1.214-0.605-1.822-1.823-1.822H43.45c-1.211,0-1.812,0.603-1.812,1.822v5.45
			c0,1.212,0.595,1.82,1.812,1.82h5.344h0.108c1.217,0,1.823-0.608,1.823-1.82V134.277z"/>
		<path d="M18.104,134.277c0-1.214-0.611-1.822-1.823-1.822h-5.447c-1.211,0-1.823,0.603-1.823,1.822v5.45
			c0,1.212,0.606,1.82,1.823,1.82h5.447c1.212,0,1.823-0.608,1.823-1.82V134.277z"/>
		<path d="M18.104,112.565c0-1.209-0.611-1.814-1.823-1.814h-5.447c-1.211,0-1.823,0.605-1.823,1.814v5.455
			c0,1.215,0.606,1.818,1.823,1.818h5.447c1.212,0,1.823-0.603,1.823-1.818V112.565z"/>
		<path d="M18.104,123.364c0-1.206-0.611-1.812-1.823-1.812h-5.447c-1.211,0-1.823,0.606-1.823,1.812v5.458
			c0,1.214,0.606,1.823,1.823,1.823h5.447c1.212,0,1.823-0.608,1.823-1.823V123.364z"/>
		<path d="M16.281,143.368h-5.447c-1.211,0-1.823,0.603-1.823,1.818v5.45c0,1.214,0.606,1.82,1.823,1.82h5.447
			c1.212,0,1.823-0.601,1.823-1.82v-5.45C18.104,143.976,17.493,143.368,16.281,143.368z"/>
		<path d="M28.905,112.565c0-1.209-0.606-1.814-1.823-1.814h-5.344c-1.212,0-1.823,0.605-1.823,1.814v5.455
			c0,1.215,0.605,1.818,1.823,1.818h5.349c1.217,0,1.822-0.603,1.822-1.818v-5.455H28.905z"/>
		<path d="M27.088,143.368h-5.349c-1.212,0-1.823,0.603-1.823,1.818v5.45c0,1.214,0.605,1.82,1.823,1.82h5.349
			c1.217,0,1.822-0.601,1.822-1.82v-5.45C28.905,143.976,28.299,143.368,27.088,143.368z"/>
		<path d="M28.905,123.364c0-1.206-0.606-1.812-1.823-1.812h-5.344c-1.212,0-1.823,0.606-1.823,1.812v5.458
			c0,1.214,0.605,1.823,1.823,1.823h5.349c1.217,0,1.822-0.608,1.822-1.823v-5.458H28.905z"/>
		<path d="M28.905,134.277c0-1.214-0.606-1.822-1.823-1.822h-5.344c-1.212,0-1.823,0.603-1.823,1.822v5.45
			c0,1.212,0.605,1.82,1.823,1.82h5.349c1.217,0,1.822-0.608,1.822-1.82v-5.45H28.905z"/>
		<path d="M50.726,112.565c0-1.209-0.605-1.814-1.823-1.814H43.45c-1.211,0-1.812,0.605-1.812,1.814v5.455
			c0,1.215,0.595,1.818,1.812,1.818h5.344h0.108c1.217,0,1.823-0.603,1.823-1.818V112.565z"/>
		<path d="M50.726,123.364c0-1.206-0.605-1.812-1.823-1.812H43.45c-1.211,0-1.812,0.606-1.812,1.812v5.458
			c0,1.214,0.595,1.823,1.812,1.823h5.344h0.108c1.217,0,1.823-0.608,1.823-1.823V123.364z"/>
		<path d="M18.104,101.658c0-1.209-0.611-1.812-1.823-1.812h-5.447c-1.211,0-1.823,0.598-1.823,1.812v5.455
			c0,1.214,0.606,1.814,1.823,1.814h5.447c1.212,0,1.823-0.601,1.823-1.814V101.658z"/>
		<path d="M50.726,101.658c0-1.209-0.605-1.812-1.823-1.812H43.45c-1.211,0-1.812,0.598-1.812,1.812v5.455
			c0,1.214,0.595,1.814,1.812,1.814h5.344h0.108c1.217,0,1.823-0.601,1.823-1.814V101.658z"/>
		<path d="M32.54,99.846c-1.217,0-1.823,0.598-1.823,1.812v5.455c0,1.214,0.606,1.814,1.823,1.814h5.453
			c1.217,0,1.817-0.601,1.817-1.814v-5.455c0-1.209-0.601-1.812-1.817-1.812H32.54z"/>
		<path d="M48.903,143.368H43.45c-1.211,0-1.812,0.603-1.812,1.818v5.45c0,1.214,0.595,1.82,1.812,1.82h5.344h0.108
			c1.217,0,1.823-0.601,1.823-1.82v-5.45C50.726,143.976,50.115,143.368,48.903,143.368z"/>
		<path d="M65.157,99.846c-1.217,0-1.817,0.598-1.817,1.812v5.455c0,1.214,0.601,1.814,1.817,1.814h5.453
			c1.211,0,1.817-0.601,1.817-1.814v-5.455c0-1.209-0.606-1.812-1.817-1.812H65.157z"/>
		<path d="M94.139,123.364c0-1.206-0.606-1.812-1.818-1.812h-5.452c-1.217,0-1.823,0.606-1.823,1.812v5.458
			c0,1.214,0.606,1.823,1.823,1.823h5.452c1.212,0,1.818-0.608,1.818-1.823V123.364z"/>
		<path d="M94.139,112.565c0-1.209-0.606-1.814-1.818-1.814h-5.452c-1.217,0-1.823,0.605-1.823,1.814v5.455
			c0,1.215,0.606,1.818,1.823,1.818h5.452c1.212,0,1.818-0.603,1.818-1.818V112.565z"/>
		<path d="M83.234,134.277c0-1.214-0.611-1.822-1.823-1.822h-5.349c-1.212,0-1.823,0.603-1.823,1.822v5.45
			c0,1.212,0.606,1.82,1.823,1.82h5.349c1.212,0,1.823-0.608,1.823-1.82V134.277z"/>
		<path d="M81.417,143.368h-5.349c-1.212,0-1.823,0.603-1.823,1.818v5.45c0,1.214,0.606,1.82,1.823,1.82h5.349
			c1.211,0,1.823-0.601,1.823-1.82v-5.45C83.234,143.976,82.623,143.368,81.417,143.368z"/>
		<path d="M94.139,134.277c0-1.214-0.606-1.822-1.818-1.822h-5.452c-1.217,0-1.823,0.603-1.823,1.822v5.45
			c0,1.212,0.606,1.82,1.823,1.82h5.452c1.212,0,1.818-0.608,1.818-1.82V134.277z"/>
		<path d="M92.321,143.368h-5.452c-1.217,0-1.823,0.603-1.823,1.818v5.45c0,1.214,0.606,1.82,1.823,1.82h5.452
			c1.212,0,1.818-0.601,1.818-1.82v-5.45C94.139,143.976,93.533,143.368,92.321,143.368z"/>
		<path d="M28.905,101.658c0-1.209-0.606-1.812-1.823-1.812h-5.344c-1.212,0-1.823,0.598-1.823,1.812v5.455
			c0,1.214,0.605,1.814,1.823,1.814h5.349c1.217,0,1.822-0.601,1.822-1.814v-5.455H28.905z"/>
		<path d="M61.625,134.277c0-1.214-0.606-1.822-1.817-1.822h-5.453h-0.108c-1.217,0-1.818,0.603-1.818,1.822v5.45
			c0,1.212,0.601,1.82,1.818,1.82h5.452h0.104c1.212,0,1.818-0.608,1.818-1.82v-5.45H61.625z"/>
		<path d="M59.808,143.368h-5.453h-0.108c-1.217,0-1.818,0.603-1.818,1.818v5.45c0,1.214,0.601,1.82,1.818,1.82h5.452h0.104
			c1.212,0,1.818-0.601,1.818-1.82v-5.45C61.625,143.976,61.02,143.368,59.808,143.368z"/>
		<path d="M83.234,123.364c0-1.206-0.611-1.812-1.823-1.812h-5.349c-1.212,0-1.823,0.606-1.823,1.812v5.458
			c0,1.214,0.606,1.823,1.823,1.823h5.349c1.212,0,1.823-0.608,1.823-1.823V123.364z"/>
		<path d="M83.234,112.565c0-1.209-0.611-1.814-1.823-1.814h-5.349c-1.212,0-1.823,0.605-1.823,1.814v5.455
			c0,1.215,0.606,1.818,1.823,1.818h5.349c1.212,0,1.823-0.603,1.823-1.818V112.565z"/>
		<path d="M83.234,101.658c0-1.209-0.611-1.812-1.823-1.812h-5.349c-1.212,0-1.823,0.598-1.823,1.812v5.455
			c0,1.214,0.606,1.814,1.823,1.814h5.349c1.212,0,1.823-0.601,1.823-1.814V101.658z"/>
		<path d="M146.215,143.368h-5.453c-1.211,0-1.817,0.603-1.817,1.818v5.45c0,1.214,0.601,1.82,1.817,1.82h5.453
			c1.212,0,1.823-0.601,1.823-1.82v-5.45C148.038,143.976,147.432,143.368,146.215,143.368z"/>
		<path d="M148.038,101.658c0-1.209-0.606-1.812-1.823-1.812h-5.453c-1.211,0-1.817,0.598-1.817,1.812v5.455
			c0,1.214,0.601,1.814,1.817,1.814h5.453c1.212,0,1.823-0.601,1.823-1.814V101.658z"/>
		<path d="M148.038,134.277c0-1.214-0.606-1.822-1.823-1.822h-5.453c-1.211,0-1.817,0.603-1.817,1.822v5.45
			c0,1.212,0.601,1.82,1.817,1.82h5.453c1.212,0,1.823-0.608,1.823-1.82V134.277z"/>
		<path d="M148.038,112.565c0-1.209-0.606-1.814-1.823-1.814h-5.453c-1.211,0-1.817,0.605-1.817,1.814v5.455
			c0,1.215,0.601,1.818,1.817,1.818h5.453c1.212,0,1.823-0.603,1.823-1.818V112.565z"/>
		<path d="M148.038,123.364c0-1.206-0.606-1.812-1.823-1.812h-5.453c-1.211,0-1.817,0.606-1.817,1.812v5.458
			c0,1.214,0.601,1.823,1.817,1.823h5.453c1.212,0,1.823-0.608,1.823-1.823V123.364z"/>
		<path d="M158.943,123.364c0-1.206-0.601-1.812-1.817-1.812h-5.448c-1.211,0-1.823,0.606-1.823,1.812v5.458
			c0,1.214,0.606,1.823,1.823,1.823h5.448c1.212,0,1.817-0.608,1.817-1.823V123.364z"/>
		<path d="M158.943,101.658c0-1.209-0.601-1.812-1.817-1.812h-5.448c-1.211,0-1.823,0.598-1.823,1.812v5.455
			c0,1.214,0.606,1.814,1.823,1.814h5.448c1.212,0,1.817-0.601,1.817-1.814V101.658z"/>
		<path d="M157.126,132.46h-5.448c-1.211,0-1.823,0.604-1.823,1.823v5.453c0,1.209,0.606,1.817,1.823,1.817h5.448
			c1.212,0,1.817-0.608,1.817-1.817v-5.453C158.943,133.063,158.338,132.46,157.126,132.46z"/>
		<path d="M158.943,112.565c0-1.209-0.601-1.814-1.817-1.814h-5.448c-1.211,0-1.823,0.605-1.823,1.814v5.455
			c0,1.215,0.606,1.818,1.823,1.818h5.448c1.212,0,1.817-0.603,1.817-1.818V112.565z"/>
		<path d="M126.223,134.277c0-1.214-0.606-1.822-1.823-1.822h-5.344c-1.217,0-1.823,0.603-1.823,1.822v5.45
			c0,1.212,0.601,1.82,1.823,1.82h5.344c1.217,0,1.823-0.608,1.823-1.82V134.277z"/>
		<path d="M129.858,143.368c-1.217,0-1.823,0.603-1.823,1.818v5.45c0,1.214,0.601,1.82,1.823,1.82h5.447
			c1.217,0,1.823-0.601,1.823-1.82v-5.45c0-1.215-0.606-1.818-1.823-1.818H129.858z"/>
		<path d="M126.223,101.658c0-1.209-0.606-1.812-1.823-1.812h-5.344c-1.217,0-1.823,0.598-1.823,1.812v5.455
			c0,1.214,0.601,1.814,1.823,1.814h5.344c1.217,0,1.823-0.601,1.823-1.814V101.658z"/>
		<path d="M115.416,123.364c0-1.206-0.601-1.812-1.817-1.812h-5.447c-1.212,0-1.823,0.606-1.823,1.812v5.458
			c0,1.214,0.606,1.823,1.823,1.823h5.447c1.211,0,1.817-0.608,1.817-1.823V123.364z"/>
		<path d="M115.416,112.565c0-1.209-0.601-1.814-1.817-1.814h-5.447c-1.212,0-1.823,0.605-1.823,1.814v5.455
			c0,1.215,0.606,1.818,1.823,1.818h5.447c1.211,0,1.817-0.603,1.817-1.818V112.565z"/>
		<path d="M113.599,132.46h-5.447c-1.212,0-1.823,0.604-1.823,1.823v5.453c0,1.209,0.606,1.817,1.823,1.817h5.447
			c1.211,0,1.817-0.608,1.817-1.817v-5.453C115.416,133.063,114.81,132.46,113.599,132.46z"/>
		<path d="M126.223,112.565c0-1.209-0.606-1.814-1.823-1.814h-5.344c-1.217,0-1.823,0.605-1.823,1.814v5.455
			c0,1.215,0.601,1.818,1.823,1.818h5.344c1.217,0,1.823-0.603,1.823-1.818V112.565z"/>
		<path d="M124.4,143.368h-5.344c-1.217,0-1.823,0.603-1.823,1.818v5.45c0,1.214,0.601,1.82,1.823,1.82h5.344
			c1.217,0,1.823-0.601,1.823-1.82v-5.45C126.223,143.976,125.617,143.368,124.4,143.368z"/>
		<path d="M126.223,123.364c0-1.206-0.606-1.812-1.823-1.812h-5.344c-1.217,0-1.823,0.606-1.823,1.812v5.458
			c0,1.214,0.601,1.823,1.823,1.823h5.344c1.217,0,1.823-0.608,1.823-1.823V123.364z"/>
		<path d="M115.416,101.658c0-1.209-0.601-1.812-1.817-1.812h-5.447c-1.212,0-1.823,0.598-1.823,1.812v5.455
			c0,1.214,0.606,1.814,1.823,1.814h5.447c1.211,0,1.817-0.601,1.817-1.814V101.658z"/>
		<path d="M201.513,134.277c0-1.214-0.611-1.822-1.817-1.822h-5.458c-1.212,0-1.817,0.603-1.817,1.822v5.45
			c0,1.212,0.605,1.82,1.817,1.82h5.458c1.206,0,1.817-0.608,1.817-1.82V134.277z"/>
		<path d="M179.801,112.565c0-1.209-0.605-1.814-1.817-1.814h-5.453c-1.217,0-1.817,0.605-1.817,1.814v5.455
			c0,1.215,0.601,1.818,1.817,1.818h5.453c1.206,0,1.817-0.603,1.817-1.818V112.565z"/>
		<path d="M183.436,152.455h5.354c1.212,0,1.817-0.601,1.817-1.82v-5.45c0-1.215-0.605-1.818-1.817-1.818h-5.354
			c-1.211,0-1.817,0.603-1.817,1.818v5.45C181.618,151.854,182.225,152.455,183.436,152.455z"/>
		<path d="M212.428,123.364c0-1.206-0.605-1.812-1.827-1.812h-5.448c-1.217,0-1.822,0.606-1.822,1.812v5.458
			c0,1.214,0.601,1.823,1.822,1.823h5.448c1.217,0,1.827-0.608,1.827-1.823V123.364z"/>
		<path d="M210.601,132.46h-5.448c-1.217,0-1.822,0.604-1.822,1.823v5.453c0,1.209,0.601,1.817,1.822,1.817h5.448
			c1.217,0,1.827-0.608,1.827-1.817v-5.453C212.428,133.063,211.817,132.46,210.601,132.46z"/>
		<path d="M212.428,101.658c0-1.209-0.605-1.812-1.827-1.812h-5.448c-1.217,0-1.822,0.598-1.822,1.812v5.455
			c0,1.214,0.601,1.814,1.822,1.814h5.448c1.217,0,1.827-0.601,1.827-1.814V101.658z"/>
		<path d="M201.513,123.364c0-1.206-0.611-1.812-1.817-1.812h-5.458c-1.212,0-1.817,0.606-1.817,1.812v5.458
			c0,1.214,0.605,1.823,1.817,1.823h5.458c1.206,0,1.817-0.608,1.817-1.823V123.364z"/>
		<path d="M177.988,143.368h-5.458c-1.217,0-1.817,0.603-1.817,1.818v5.45c0,1.214,0.601,1.82,1.817,1.82h5.453
			c1.206,0,1.817-0.601,1.817-1.82v-5.45C179.801,143.976,179.195,143.368,177.988,143.368z"/>
		<path d="M201.513,101.658c0-1.209-0.611-1.812-1.817-1.812h-5.458c-1.212,0-1.817,0.598-1.817,1.812v5.455
			c0,1.214,0.605,1.814,1.817,1.814h5.458c1.206,0,1.817-0.601,1.817-1.814V101.658z"/>
		<path d="M199.695,143.368h-5.458c-1.212,0-1.817,0.603-1.817,1.818v5.45c0,1.214,0.605,1.82,1.817,1.82h5.458
			c1.206,0,1.817-0.601,1.817-1.82v-5.45C201.513,143.976,200.901,143.368,199.695,143.368z"/>
		<path d="M179.801,123.364c0-1.206-0.605-1.812-1.817-1.812h-5.453c-1.217,0-1.817,0.606-1.817,1.812v5.458
			c0,1.214,0.601,1.823,1.817,1.823h5.453c1.206,0,1.817-0.608,1.817-1.823V123.364z"/>
		<path d="M190.603,112.565c0-1.209-0.606-1.814-1.817-1.814h-5.354c-1.212,0-1.817,0.605-1.817,1.814v5.455
			c0,1.215,0.605,1.818,1.817,1.818h5.354c1.211,0,1.817-0.603,1.817-1.818V112.565z"/>
		<path d="M190.603,101.658c0-1.209-0.606-1.812-1.817-1.812h-5.354c-1.212,0-1.817,0.598-1.817,1.812v5.455
			c0,1.214,0.605,1.814,1.817,1.814h5.354c1.211,0,1.817-0.601,1.817-1.814V101.658z"/>
		<path d="M190.603,123.364c0-1.206-0.606-1.812-1.817-1.812h-5.354c-1.212,0-1.817,0.606-1.817,1.812v5.458
			c0,1.214,0.605,1.823,1.817,1.823h5.354c1.211,0,1.817-0.608,1.817-1.823V123.364z"/>
		<path d="M244.181,134.277c0-1.214-0.601-1.822-1.823-1.822h-5.344c-1.217,0-1.822,0.603-1.822,1.822v5.45
			c0,1.212,0.605,1.82,1.822,1.82h5.344c1.217,0,1.823-0.608,1.823-1.82V134.277z"/>
		<path d="M242.357,143.368h-5.344c-1.217,0-1.822,0.603-1.822,1.818v5.45c0,1.214,0.605,1.82,1.822,1.82h5.344
			c1.217,0,1.823-0.601,1.823-1.82v-5.45C244.181,143.976,243.58,143.368,242.357,143.368z"/>
		<path d="M244.181,123.364c0-1.206-0.601-1.812-1.823-1.812h-5.344c-1.217,0-1.822,0.606-1.822,1.812v5.458
			c0,1.214,0.605,1.823,1.822,1.823h5.344c1.217,0,1.823-0.608,1.823-1.823V123.364z"/>
		<path d="M233.379,123.364c0-1.206-0.601-1.812-1.823-1.812h-5.447c-1.212,0-1.822,0.606-1.822,1.812v5.458
			c0,1.214,0.61,1.823,1.822,1.823h5.447c1.218,0,1.823-0.608,1.823-1.823V123.364z"/>
		<path d="M233.379,79.949c0-1.214-0.601-1.823-1.823-1.823h-5.447c-1.212,0-1.822,0.604-1.822,1.823v5.346
			c0,1.214,0.61,1.823,1.822,1.823h5.447c1.218,0,1.823-0.603,1.823-1.823V79.949z"/>
		<path d="M244.181,101.658c0-1.209-0.601-1.812-1.823-1.812h-5.344c-1.217,0-1.822,0.598-1.822,1.812v5.455
			c0,1.214,0.605,1.814,1.822,1.814h5.344c1.217,0,1.823-0.601,1.823-1.814V101.658z"/>
		<path d="M244.181,69.043c0-1.214-0.601-1.82-1.823-1.82h-5.344c-1.217,0-1.822,0.605-1.822,1.82v5.45
			c0,1.215,0.605,1.823,1.822,1.823h5.344c1.217,0,1.823-0.608,1.823-1.823V69.043z"/>
		<path d="M244.181,112.565c0-1.209-0.601-1.814-1.823-1.814h-5.344c-1.217,0-1.822,0.605-1.822,1.814v5.455
			c0,1.215,0.605,1.818,1.822,1.818h5.344c1.217,0,1.823-0.603,1.823-1.818V112.565z"/>
		<path d="M233.379,134.277c0-1.214-0.601-1.822-1.823-1.822h-5.447c-1.212,0-1.822,0.603-1.822,1.822v5.45
			c0,1.212,0.61,1.82,1.822,1.82h5.447c1.218,0,1.823-0.608,1.823-1.82V134.277z"/>
		<path d="M233.379,101.658c0-1.209-0.601-1.812-1.823-1.812h-5.447c-1.212,0-1.822,0.598-1.822,1.812v5.455
			c0,1.214,0.61,1.814,1.822,1.814h5.447c1.218,0,1.823-0.601,1.823-1.814V101.658z"/>
		<path d="M233.379,112.565c0-1.209-0.601-1.814-1.823-1.814h-5.447c-1.212,0-1.822,0.605-1.822,1.814v5.455
			c0,1.215,0.61,1.818,1.822,1.818h5.447c1.218,0,1.823-0.603,1.823-1.818V112.565z"/>
		<path d="M226.108,152.455h5.447c1.218,0,1.823-0.601,1.823-1.82v-5.45c0-1.215-0.601-1.818-1.823-1.818h-5.447
			c-1.212,0-1.822,0.603-1.822,1.818v5.45C224.286,151.854,224.896,152.455,226.108,152.455z"/>
		<path d="M244.181,79.949c0-1.214-0.601-1.823-1.823-1.823h-5.344c-1.217,0-1.822,0.604-1.822,1.823v5.346
			c0,1.214,0.605,1.823,1.822,1.823h5.344c1.217,0,1.823-0.603,1.823-1.823V79.949z"/>
		<path d="M233.379,69.043c0-1.214-0.601-1.82-1.823-1.82h-5.447c-1.212,0-1.822,0.605-1.822,1.82v5.45
			c0,1.215,0.61,1.823,1.822,1.823h5.447c1.218,0,1.823-0.608,1.823-1.823V69.043z"/>
		<path d="M276.797,112.565c0-1.209-0.61-1.814-1.822-1.814h-5.349c-1.212,0-1.823,0.605-1.823,1.814v5.455
			c0,1.215,0.606,1.818,1.823,1.818h5.349c1.212,0,1.822-0.603,1.822-1.818V112.565z"/>
		<path d="M287.702,101.658c0-1.209-0.601-1.812-1.817-1.812h-5.452c-1.212,0-1.823,0.598-1.823,1.812v5.455
			c0,1.214,0.606,1.814,1.823,1.814h5.452c1.217,0,1.817-0.601,1.817-1.814V101.658z"/>
		<path d="M276.797,101.658c0-1.209-0.61-1.812-1.822-1.812h-5.349c-1.212,0-1.823,0.598-1.823,1.812v5.455
			c0,1.214,0.606,1.814,1.823,1.814h5.349c1.212,0,1.822-0.601,1.822-1.814V101.658z"/>
		<path d="M269.631,152.455h5.349c1.212,0,1.823-0.601,1.823-1.82v-5.45c0-1.215-0.611-1.818-1.823-1.818h-5.349
			c-1.212,0-1.822,0.603-1.822,1.818v5.45C267.809,151.854,268.414,152.455,269.631,152.455z"/>
		<path d="M265.99,112.565c0-1.209-0.605-1.814-1.817-1.814h-5.452c-1.212,0-1.817,0.605-1.817,1.814v5.455
			c0,1.215,0.605,1.818,1.817,1.818h5.452c1.212,0,1.817-0.603,1.817-1.818V112.565z"/>
		<path d="M298.618,101.658c0-1.209-0.606-1.812-1.828-1.812h-5.447c-1.217,0-1.817,0.598-1.817,1.812v5.455
			c0,1.214,0.596,1.814,1.817,1.814h5.447c1.217,0,1.828-0.601,1.828-1.814V101.658z"/>
		<path d="M296.79,143.368h-5.447c-1.217,0-1.817,0.603-1.817,1.818v5.45c0,1.214,0.596,1.82,1.817,1.82h5.447
			c1.217,0,1.828-0.601,1.828-1.82v-5.45C298.618,143.976,298.007,143.368,296.79,143.368z"/>
		<path d="M264.173,132.46h-5.452c-1.212,0-1.817,0.604-1.817,1.823v5.453c0,1.209,0.605,1.817,1.817,1.817h5.452
			c1.212,0,1.817-0.608,1.817-1.817v-5.453C265.99,133.063,265.385,132.46,264.173,132.46z"/>
		<path d="M285.885,143.368h-5.452c-1.212,0-1.823,0.603-1.823,1.818v5.45c0,1.214,0.606,1.82,1.823,1.82h5.452
			c1.217,0,1.817-0.601,1.817-1.82v-5.45C287.702,143.976,287.102,143.368,285.885,143.368z"/>
		<path d="M265.99,123.364c0-1.206-0.605-1.812-1.817-1.812h-5.452c-1.212,0-1.817,0.606-1.817,1.812v5.458
			c0,1.214,0.605,1.823,1.817,1.823h5.452c1.212,0,1.817-0.608,1.817-1.823V123.364z"/>
		<path d="M276.797,134.277c0-1.214-0.61-1.822-1.822-1.822h-5.349c-1.212,0-1.823,0.603-1.823,1.822v5.45
			c0,1.212,0.606,1.82,1.823,1.82h5.349c1.212,0,1.822-0.608,1.822-1.82V134.277z"/>
		<path d="M276.797,123.364c0-1.206-0.61-1.812-1.822-1.812h-5.349c-1.212,0-1.823,0.606-1.823,1.812v5.458
			c0,1.214,0.606,1.823,1.823,1.823h5.349c1.212,0,1.822-0.608,1.822-1.823V123.364z"/>
	</g>
</g>
<g>
</g>
<g>
</g>
<g>
</g>
<g>
</g>
<g>
</g>
<g>
</g>
<g>
</g>
<g>
</g>
<g>
</g>
<g>
</g>
<g>
</g>
<g>
</g>
<g>
</g>
<g>
</g>
<g>
</g>
</svg>
